<?xml version="1.0" encoding="UTF-8" standalone="no"?>
<!-- Generated by IcoMoon.io -->

<svg
   xmlns:dc="http://purl.org/dc/elements/1.1/"
   xmlns:cc="http://creativecommons.org/ns#"
   xmlns:rdf="http://www.w3.org/1999/02/22-rdf-syntax-ns#"
   xmlns:svg="http://www.w3.org/2000/svg"
   xmlns="http://www.w3.org/2000/svg"
   xmlns:sodipodi="http://sodipodi.sourceforge.net/DTD/sodipodi-0.dtd"
   xmlns:inkscape="http://www.inkscape.org/namespaces/inkscape"
   version="1.1"
   width="1024"
   height="1024"
   viewBox="0 0 1024 1024"
   id="svg7"
   sodipodi:docname="bag-sword.svg"
   inkscape:version="0.92.3 (2405546, 2018-03-11)">
  <metadata
     id="metadata13">
    <rdf:RDF>
      <cc:Work
         rdf:about="">
        <dc:format>image/svg+xml</dc:format>
        <dc:type
           rdf:resource="http://purl.org/dc/dcmitype/StillImage" />
        <dc:title>calendar</dc:title>
      </cc:Work>
    </rdf:RDF>
  </metadata>
  <defs
     id="defs11" />
  <sodipodi:namedview
     pagecolor="#ffffff"
     bordercolor="#666666"
     borderopacity="1"
     objecttolerance="10"
     gridtolerance="10"
     guidetolerance="10"
     inkscape:pageopacity="0"
     inkscape:pageshadow="2"
     inkscape:window-width="1366"
     inkscape:window-height="704"
     id="namedview9"
     showgrid="false"
     inkscape:zoom="0.23046875"
     inkscape:cx="-208.27119"
     inkscape:cy="512"
     inkscape:window-x="0"
     inkscape:window-y="27"
     inkscape:window-maximized="1"
     inkscape:current-layer="svg7" />
  <title
     id="title2">calendar</title>
  <g
     id="icomoon-ignore" />
  <path
     fill="#e3d2bc"
     d="m 572.512,313.76 h -121.28 c 0,0 -197.44,154.592 -197.44,387.456 0,232.864 207.552,235.104 207.552,235.104 0,0 54.016,4 100,0 0,1.984 208.8,-27.68 208.8,-235.296 C 770.1602,595.94247 697.80613,532.70902 647.78033,461.60945 598.99757,392.27656 572.512,313.76 572.512,313.76 Z m -121.28,-15.2 H 572.736 V 252.992 H 451.232 Z M 570.88,237.824 632.576,85.92 c 0,0 -38.944,32.288 -61.696,32.288 -22.816,0 -58.88,-31.328 -58.88,-31.328 0,0 -38.912,31.328 -61.696,31.328 -22.784,0 -59.808,-30.368 -59.808,-30.368 l 62.656,150.016 H 570.88 Z"
     id="path5"
     inkscape:connector-curvature="0"
     sodipodi:nodetypes="ccscccsccccccccscscccc" />
  <path
     style="fill:#e3d2bc;fill-opacity:1;stroke:#000000;stroke-width:1px;stroke-linecap:butt;stroke-linejoin:miter;stroke-opacity:1"
     d="M 620.47458,347.11864 811.38984,199.59322 H 958.91526 L 915.52543,321.08475 681.22035,459.9322 620.47458,386.16949 Z"
     id="path839"
     inkscape:connector-curvature="0" />
  <path
     fill="#e3d2bc"
     style="stroke:#000000;stroke-width:1px;stroke-linecap:butt;stroke-linejoin:miter;stroke-opacity:1;fill-opacity:1"
     d="m 260.33898,516.33898 -43.38983,-104.13559 -30.37288,39.05085 60.74576,156.20339 z"
     id="path841"
     inkscape:connector-curvature="0" />
  <path
     fill="#e3d2bc"
     style="stroke:#000000;stroke-width:1px;stroke-linecap:butt;stroke-linejoin:miter;stroke-opacity:1;fill-opacity:1"
     d="m 134.50847,659.52542 112.81356,-52.06779 -13.01695,91.11864 v 47.72881 L 130.16949,807.05085 56.40678,741.9661 c 0,0 17.355932,-43.38983 65.08475,-78.10169 47.72881,-34.71187 13.01694,-4.33899 13.01694,-4.33899 z"
     id="path843"
     inkscape:connector-curvature="0" />
</svg>
